<svg width="359" height="245" xmlns="http://www.w3.org/2000/svg" xmlns:xlink="http://www.w3.org/1999/xlink"><defs><path id="a" d="M0 0h359v245H0z"/><linearGradient x1="35.062%" y1="59.06%" x2="79.575%" y2="37.025%" id="b"><stop stop-color="#BCBCBC" offset="0%"/><stop stop-color="#828282" offset="100%"/></linearGradient></defs><g fill="none" fill-rule="evenodd"><mask id="c" fill="#fff"><use xlink:href="#a"/></mask><use fill="#BCBCBC" xlink:href="#a"/><path fill="url(#b)" mask="url(#c)" d="M206.956 77l102 52-102 57L106 129z"/><g mask="url(#c)"><path fill="#0698D4" d="M227 25.25L329.75 77l-.75 42-102-51.332z"/><path fill="#1AB2F0" d="M227 25.25L261.25 8 364 59.48 329.75 77z"/><path fill="#0577A5" d="M329.75 77l-.75 42 35-16.967V59.48z"/></g><g mask="url(#c)"><path fill="#0698D4" d="M190.956 43.25L293.706 95l-.75 42-102-51.332z"/><path fill="#1AB2F0" d="M190.956 43.25L225.206 26l102.75 51.48L293.706 95z"/><path fill="#0577A5" d="M293.706 95l-.75 42 35-16.967V77.48z"/></g><g mask="url(#c)"><path fill="#0698D4" d="M155 61.25L257.75 113l-.75 42-102-51.332z"/><path fill="#1AB2F0" d="M155 61.25L189.25 44 292 95.48 257.75 113z"/><path fill="#0577A5" d="M257.75 113l-.75 42 35-16.967V95.48z"/></g></g></svg>