<svg width="236" height="196" xmlns="http://www.w3.org/2000/svg"><defs><linearGradient x1="33.597%" y1="60.602%" x2="79.575%" y2="38.887%" id="a"><stop stop-color="#242B33" offset="0%"/><stop stop-color="#0E1114" offset="100%"/></linearGradient></defs><g fill="none" fill-rule="evenodd"><path fill="#0698D4" d="M107 56.007l95.131 48.02-.694 38.973L107 95.367z"/><path fill="#1AB2F0" d="M107 56.007L138.71 40l95.74 48.338-32.319 15.689z"/><path fill="#0577A5" d="M202.131 104.027L201.437 143l32.405-15.744.608-38.918z"/><path fill="#0698D4" d="M74 72.007l95.131 48.02-.694 38.973L74 111.367z"/><path fill="#1AB2F0" d="M74 72.007L105.71 56l95.74 48.338-32.319 15.689z"/><path fill="#0577A5" d="M169.131 120.027L168.437 159l32.405-15.744.608-38.918z"/><path fill="#0698D4" d="M108 16.007l95.131 48.02-.694 38.973L108 55.367z"/><path fill="#1AB2F0" d="M108 16.007L139.71 0l95.74 48.338-32.319 15.689z"/><path fill="#0577A5" d="M203.131 64.027L202.437 103l32.405-15.744.608-38.918z"/><path fill="#0698D4" d="M75 32.007l95.131 48.02-.694 38.973L75 71.367z"/><path fill="#1AB2F0" d="M75 32.007L106.71 16l95.74 48.338-32.319 15.689z"/><path fill="#0577A5" d="M170.131 80.027L169.437 119l32.405-15.744.608-38.918z"/><path fill="url(#a)" d="M73.971 112L169 159.097 93.968 196 0 145.142z"/><path fill="#0698D4" d="M41 88.007l95.131 48.02-.694 38.973L41 127.367z"/><path fill="#1AB2F0" d="M41 88.007L72.71 72l95.74 48.338-32.319 15.689z"/><path fill="#0577A5" d="M136.131 136.027L135.437 175l32.405-15.744.608-38.918z"/></g></svg>