<svg width="359" height="245" xmlns="http://www.w3.org/2000/svg" xmlns:xlink="http://www.w3.org/1999/xlink"><defs><path id="a" d="M0 0h359v245H0z"/><linearGradient x1="24.087%" y1="61.968%" x2="79.575%" y2="37.025%" id="b"><stop stop-color="#3B3B3B" offset="0%"/><stop stop-color="#252525" offset="100%"/></linearGradient></defs><g fill="none" fill-rule="evenodd"><mask id="c" fill="#fff"><use xlink:href="#a"/></mask><use fill="#3B3B3B" xlink:href="#a"/><path fill="url(#b)" mask="url(#c)" d="M196.956 77l102 52-102 57L96 129z"/><g mask="url(#c)"><path fill="#0698D4" d="M241 12.25L343.75 64l-.75 42-102-51.332z"/><path fill="#1AB2F0" d="M241 12.25L275.25-5 378 46.48 343.75 64z"/><path fill="#0577A5" d="M343.75 64l-.75 42 35-16.967V46.48z"/></g><g mask="url(#c)"><path fill="#0698D4" d="M204.956 30.25L307.706 82l-.75 42-102-51.332z"/><path fill="#1AB2F0" d="M204.956 30.25L239.206 13l102.75 51.48L307.706 82z"/><path fill="#0577A5" d="M307.706 82l-.75 42 35-16.967V64.48z"/></g><g mask="url(#c)"><path fill="#0698D4" d="M168.956 48.25L271.706 100l-.75 42-102-51.332z"/><path fill="#1AB2F0" d="M168.956 48.25L203.206 31l102.75 51.48-34.25 17.52z"/><path fill="#0577A5" d="M271.706 100l-.75 42 35-16.967V82.48z"/></g><g mask="url(#c)"><path fill="#0698D4" d="M339-13.75L236.25 38l.75 42 102-51.332z"/><path fill="#1AB2F0" d="M339-13.75L304.75-31 202 20.48 236.25 38z"/><path fill="#0698D4" d="M236.25 38l.75 42-35-16.967V20.48z"/></g><g mask="url(#c)"><path fill="#0577A5" d="M375 4.25L272.25 56l.75 42 102-51.332z"/><path fill="#1AB2F0" d="M375 4.25L340.75-13 238 38.48 272.25 56z"/><path fill="#0698D4" d="M272.25 56l.75 42-35-16.967V38.48z"/></g></g></svg>