<svg width="362" height="245" xmlns="http://www.w3.org/2000/svg" xmlns:xlink="http://www.w3.org/1999/xlink"><defs><path id="a" d="M0 0h362v245H0z"/><linearGradient x1="40.623%" y1="56.154%" x2="79.575%" y2="37.025%" id="b"><stop stop-color="#EEE" offset="0%"/><stop stop-color="#D8D8D8" offset="100%"/></linearGradient></defs><g fill="none" fill-rule="evenodd"><mask id="c" fill="#fff"><use xlink:href="#a"/></mask><use fill="#F0F0F0" xlink:href="#a"/><path fill="url(#b)" mask="url(#c)" d="M227.956 77l102 52-102 57L127 129z"/><g mask="url(#c)"><path fill="#0698D4" d="M248 25.25L350.75 77l-.75 42-102-51.332z"/><path fill="#1AB2F0" d="M248 25.25L282.25 8 385 59.48 350.75 77z"/><path fill="#0577A5" d="M350.75 77l-.75 42 35-16.967V59.48z"/></g><g mask="url(#c)"><path fill="#0698D4" d="M211.956 43.25L314.706 95l-.75 42-102-51.332z"/><path fill="#1AB2F0" d="M211.956 43.25L246.206 26l102.75 51.48L314.706 95z"/><path fill="#0577A5" d="M314.706 95l-.75 42 35-16.967V77.48z"/></g></g></svg>