<svg width="357" height="245" xmlns="http://www.w3.org/2000/svg" xmlns:xlink="http://www.w3.org/1999/xlink"><defs><path id="a" d="M0 0h357v245H0z"/><linearGradient x1="24.087%" y1="61.968%" x2="79.575%" y2="37.025%" id="b"><stop stop-color="#545454" offset="0%"/><stop stop-color="#414141" offset="100%"/></linearGradient></defs><g fill="none" fill-rule="evenodd"><mask id="c" fill="#fff"><use xlink:href="#a"/></mask><use fill="#545454" xlink:href="#a"/><path fill="url(#b)" mask="url(#c)" d="M183.956 90l102 52-102 57L83 142z"/><g mask="url(#c)"><path fill="#0698D4" d="M218 32.25L320.75 84l-.75 42-102-51.332z"/><path fill="#1AB2F0" d="M218 32.25L252.25 15 355 66.48 320.75 84z"/><path fill="#0577A5" d="M320.75 84l-.75 42 35-16.967V66.48z"/></g><g mask="url(#c)"><path fill="#0698D4" d="M181.956 50.25L284.706 102l-.75 42-102-51.332z"/><path fill="#1AB2F0" d="M181.956 50.25L216.206 33l102.75 51.48-34.25 17.52z"/><path fill="#0577A5" d="M284.706 102l-.75 42 35-16.967V84.48z"/></g><g mask="url(#c)"><path fill="#0698D4" d="M351-10.75L248.25 41l.75 42 102-51.332z"/><path fill="#1AB2F0" d="M351-10.75L316.75-28 214 23.48 248.25 41z"/><path fill="#0698D4" d="M248.25 41l.75 42-35-16.967V23.48z"/></g><g mask="url(#c)"><path fill="#0577A5" d="M387 7.25L284.25 59l.75 42 102-51.332z"/><path fill="#1AB2F0" d="M387 7.25L352.75-10 250 41.48 284.25 59z"/><path fill="#0698D4" d="M284.25 59l.75 42-35-16.967V41.48z"/></g></g></svg>