<svg width="70" height="69" xmlns="http://www.w3.org/2000/svg"><g fill="none" fill-rule="evenodd"><path d="M-1-3h74v74H-1z"/><g fill-rule="nonzero"><path d="M69.57 54.936L56.503 32.178a2.173 2.173 0 0 0-1.367-1.025 2.16 2.16 0 0 0-1.682.29L35.342 43.3a2.176 2.176 0 0 0-.69 2.895l12.506 21.723a2.155 2.155 0 0 0 2.148 1.065 2.17 2.17 0 0 0 1.802-1.588l3.368-12.706 12.662 3.415a2.142 2.142 0 0 0 2.268-.77 2.168 2.168 0 0 0 .164-2.398z" fill="#0698D4"/><path d="M35.368 43.304L17.255 31.447a2.107 2.107 0 0 0-1.682-.29 2.133 2.133 0 0 0-1.363 1.021L1.144 54.936a2.174 2.174 0 0 0 .16 2.402 2.14 2.14 0 0 0 2.267.77l12.662-3.414 3.368 12.705a2.165 2.165 0 0 0 1.798 1.588c.095.009.194.013.285.013.763 0 1.48-.407 1.867-1.082l12.507-21.723a2.162 2.162 0 0 0-.69-2.891z" fill="#E8E8E8"/></g><circle fill="#3A4046" fill-rule="nonzero" cx="33.856" cy="24" r="24"/><path fill="#FFF" d="M34 31l-8.229 4.326 1.572-9.163-6.658-6.49 9.2-1.336L34 10l4.114 8.337 9.2 1.337-6.657 6.49 1.572 9.162z"/></g></svg>