<svg width="66" height="66" xmlns="http://www.w3.org/2000/svg" xmlns:xlink="http://www.w3.org/1999/xlink"><defs><circle id="a" cx="33" cy="33" r="33"/><path id="c" d="M0 0h39v39H0z"/></defs><g fill="none" fill-rule="evenodd"><path d="M-4-6h74v74H-4z"/><mask id="b" fill="#fff"><use xlink:href="#a"/></mask><circle stroke="#047BAD" stroke-width="4" cx="33" cy="33" r="31"/><path d="M33 60c14.912 0 27-12.088 27-27S47.912 6 33 6 6 18.088 6 33s12.088 27 27 27z" stroke="#FFF" stroke-width="2" stroke-dasharray="2,5" mask="url(#b)"/><g mask="url(#b)"><g transform="translate(-6 -4)"><mask id="d" fill="#fff"><use xlink:href="#c"/></mask><use fill="#FFF" xlink:href="#c"/><path d="M39 64c14.912 0 27-12.088 27-27S53.912 10 39 10 12 22.088 12 37s12.088 27 27 27z" stroke="#000" stroke-width="2" stroke-dasharray="2,5" mask="url(#d)"/></g></g><path d="M33 7.559V34.5m0 0h12.632" stroke="#000" stroke-width="3" stroke-linecap="round" mask="url(#b)"/></g></svg>