<svg width="106" height="106" xmlns="http://www.w3.org/2000/svg" xmlns:xlink="http://www.w3.org/1999/xlink"><defs><path id="a" d="M16 16h74v74H16z"/><linearGradient x1="46.483%" y1="-80.511%" x2="46.483%" y2="45.687%" id="c"><stop stop-opacity=".012" offset="0%"/><stop stop-color="#FFF" stop-opacity=".362" offset="43.581%"/><stop stop-color="#FFF" stop-opacity=".899" offset="100%"/></linearGradient><filter x="-20%" y="-41.2%" width="140%" height="182.4%" filterUnits="objectBoundingBox" id="d"><feGaussianBlur stdDeviation="7" in="SourceGraphic"/></filter></defs><g fill="none" fill-rule="evenodd"><mask id="b" fill="#fff"><use xlink:href="#a"/></mask><use fill="#F1F1F1" transform="rotate(-45 53 53)" xlink:href="#a"/><g fill-rule="nonzero" mask="url(#b)"><path d="M72.744 49.683l-17.012-9.377a2.457 2.457 0 0 0-3.324.938l-4.161 7.408-2.662 4.738L32.31 77.025a2.41 2.41 0 0 0 .947 3.292l17.012 9.377c1.18.65 2.668.23 3.324-.938l20.1-35.78a2.41 2.41 0 0 0-.948-3.293z" fill="#FFF"/><g transform="translate(32 42)"><path d="M49.608 17.569l-4.422-6.891-1.798-2.803-4.334-6.753a2.422 2.422 0 0 0-3.369-.726L7.781 18.662l-4.462 2.921-2.208 1.446a2.476 2.476 0 0 0-.72 3.403l10.554 16.446a2.422 2.422 0 0 0 3.37.726l34.574-22.633a2.475 2.475 0 0 0 .719-3.402z" fill="#0698D4"/><ellipse fill="#FFF" transform="rotate(-4.816 24.554 21.474)" cx="24.554" cy="21.474" rx="8.643" ry="8.661"/><path d="M28.6 21.132c-.806-1.063-1.963-1.345-3.986-.93-1.462.273-2.135.293-2.43-.097-.251-.33-.212-.822.687-1.32.996-.55 1.838-.631 2.297-.7l-.612-1.555c-.6.063-1.348.242-2.301.72l-.79-1.04-1.355.75.852 1.122c-1.292 1.066-1.53 2.355-.742 3.394.87 1.145 2.328 1.177 4.13.783 1.248-.27 1.906-.232 2.246.216.359.472.017 1.03-.771 1.467-.9.497-1.904.7-2.691.75l.634 1.611c.723-.03 1.783-.316 2.736-.793l.852 1.122 1.356-.75-.915-1.204c1.411-1.116 1.602-2.496.804-3.546z" fill="#0596D2"/></g><path d="M57.186 35.977a2.65 2.65 0 0 0 0 0zm0 0v-.014c-.002-.022-.002-.022-.003-.072a2.63 2.63 0 0 0-1.238-2.275l-12.25-7.7c-1.254-.788-2.917-.423-3.713.812a2.622 2.622 0 0 0 .822 3.649l6.093 3.829-1.088.303C32.139 38.322 22.5 50.704 22.5 64.912c0 17.416 14.354 31.588 32 31.588s32-14.172 32-31.588c0-1.46-1.201-2.645-2.686-2.645-1.485 0-2.686 1.186-2.686 2.645 0 14.502-11.946 26.296-26.628 26.296-14.681 0-26.627-11.794-26.627-26.296 0-12.098 8.387-22.575 20.115-25.497l1.226-.305-4.78 7.413a2.622 2.622 0 0 0 .822 3.649 2.7 2.7 0 0 0 1.442.416c.914 0 1.772-.455 2.27-1.228l7.395-11.469.064-.08c.483-.49.758-1.14.76-1.834z" stroke="#F1F1F1" fill="#242B33"/></g><path fill="url(#c)" filter="url(#d)" mask="url(#b)" d="M0 69h105v51H0z"/></g></svg>