<svg width="106" height="106" xmlns="http://www.w3.org/2000/svg" xmlns:xlink="http://www.w3.org/1999/xlink"><defs><path id="a" d="M16 16h74v74H16z"/><linearGradient x1="46.483%" y1="-80.511%" x2="46.483%" y2="45.687%" id="c"><stop stop-opacity=".012" offset="0%"/><stop stop-color="#FFF" stop-opacity=".362" offset="43.581%"/><stop stop-color="#FFF" stop-opacity=".899" offset="100%"/></linearGradient><filter x="-20%" y="-41.2%" width="140%" height="182.4%" filterUnits="objectBoundingBox" id="d"><feGaussianBlur stdDeviation="7" in="SourceGraphic"/></filter></defs><g fill="none" fill-rule="evenodd"><mask id="b" fill="#fff"><use xlink:href="#a"/></mask><use fill="#F1F1F1" transform="rotate(-45 53 53)" xlink:href="#a"/><g mask="url(#b)"><g transform="translate(20.849 18)" fill-rule="nonzero"><path fill="#02638A" d="M48.151 25h7v13h-7z"/><path fill="#0477A8" d="M46.151 18h13v7h-13z"/><path d="M6.151 48.911V77h52V48.911L32.151 24a2355.07 2355.07 0 0 1-26 24.911z" fill="#FCFDFD"/><path d="M49.02 3.78c-.282-1.322-.974-2.421-1.947-3.096-.927-.643-2.021-.837-3.165-.563-1.148.275-1.646 1.002-2.757 2.165-1.11-1.162-1.609-1.89-2.757-2.165-1.144-.274-2.238-.08-3.164.563-.974.674-1.666 1.774-1.947 3.097a6.344 6.344 0 0 0 .531 4.098C35.066 10.423 41.105 14 41.151 14c.047 0 6.086-3.577 7.337-6.12.632-1.284.82-2.74.531-4.1z" fill="#242B33"/><path d="M27.151 73h-16V57.754c0-4.337 3.661-7.754 8-7.754 4.475 0 8 3.549 8 7.754V73z" fill="#E8E8E8"/><rect fill="#02638A" x="31.151" y="51" width="21" height="18" rx="2"/><g transform="translate(33.151 53)" fill="#F1F1F1"><rect x=".114" y=".05" width="6.898" height="13.857" rx="2"/><rect x="9.988" y=".05" width="6.898" height="13.857" rx="2"/></g><path d="M62.951 43.051L35.085 16.158c-1.6-1.544-4.4-1.544-6 0L1.35 43.051c-1.6 1.545-1.6 4.247 0 5.79 1.6 1.545 4.4 1.545 6 0l24.8-23.933 24.8 23.934c1.6 1.544 4.4 1.544 6 0 1.6-1.673 1.6-4.246 0-5.79z" fill="#0698D4"/></g></g><path fill="url(#c)" filter="url(#d)" mask="url(#b)" d="M0 69h105v51H0z"/></g></svg>