<svg width="106" height="106" xmlns="http://www.w3.org/2000/svg" xmlns:xlink="http://www.w3.org/1999/xlink"><defs><path id="a" d="M16 16h74v74H16z"/><linearGradient x1="46.483%" y1="-80.511%" x2="46.483%" y2="45.687%" id="c"><stop stop-opacity=".012" offset="0%"/><stop stop-color="#FFF" stop-opacity=".362" offset="43.581%"/><stop stop-color="#FFF" stop-opacity=".899" offset="100%"/></linearGradient><filter x="-20%" y="-41.2%" width="140%" height="182.4%" filterUnits="objectBoundingBox" id="d"><feGaussianBlur stdDeviation="7" in="SourceGraphic"/></filter></defs><g fill="none" fill-rule="evenodd"><mask id="b" fill="#fff"><use xlink:href="#a"/></mask><use fill="#F1F1F1" transform="rotate(-45 53 53)" xlink:href="#a"/><g mask="url(#b)"><path d="M11 15h83v83H11z"/><g transform="translate(13 21)"><path fill="#0698D4" d="M5.47 33.874l14.038-8.187 10.618 18.578-18.39 10.726L5.47 44.88z"/><path fill="#047BAD" d="M15.894 33.874l14.038-8.187 10.617 18.578-18.39 10.726-6.265-10.11z"/><path fill="#02648C" d="M27.07 33.874l14.038-8.187 10.618 18.578-18.39 10.726-6.265-10.11z"/><rect fill="#FFF" x="4.471" y="42.623" width="59.235" height="27.097" rx="2"/><ellipse fill="#02648C" cx="15.647" cy="56.171" rx="3.353" ry="3.387"/><ellipse fill="#02648C" cx="27.941" cy="56.171" rx="3.353" ry="3.387"/><ellipse fill="#02648C" cx="40.235" cy="56.171" rx="3.353" ry="3.387"/><path d="M55.795 15.526h14.013a2 2 0 0 1 1.996 1.883l2.954 50.193a2 2 0 0 1-1.997 2.118H53.505a2 2 0 0 1-1.998-2.091l2.29-50.194a2 2 0 0 1 1.998-1.909z" fill="#0698D4"/><path d="M4.47 0h51.677a7 7 0 0 1 7 7v2.09" stroke="#242B33" stroke-width="3" stroke-linecap="round"/><path d="M4.47 9.09h49.28" stroke="#E8E8E8" stroke-width="3" stroke-linecap="round"/></g></g><path fill="url(#c)" filter="url(#d)" mask="url(#b)" d="M4 79h105v51H4z"/></g></svg>