<svg width="106" height="106" xmlns="http://www.w3.org/2000/svg" xmlns:xlink="http://www.w3.org/1999/xlink"><defs><path id="a" d="M16 16h74v74H16z"/><linearGradient x1="46.483%" y1="-80.511%" x2="46.483%" y2="45.687%" id="c"><stop stop-opacity=".012" offset="0%"/><stop stop-color="#FFF" stop-opacity=".362" offset="43.581%"/><stop stop-color="#FFF" stop-opacity=".899" offset="100%"/></linearGradient><filter x="-20%" y="-41.2%" width="140%" height="182.4%" filterUnits="objectBoundingBox" id="d"><feGaussianBlur stdDeviation="7" in="SourceGraphic"/></filter></defs><g fill="none" fill-rule="evenodd"><mask id="b" fill="#fff"><use xlink:href="#a"/></mask><use fill="#F1F1F1" transform="rotate(-45 53 53)" xlink:href="#a"/><g mask="url(#b)"><path fill="#FFF" fill-rule="nonzero" d="M22.148 37h62v54h-62z"/><path d="M24.148 37h58a2 2 0 0 1 2 2v13h-62V39a2 2 0 0 1 2-2z" fill="#0698D4" fill-rule="nonzero"/><g transform="translate(33.148 60)" fill="#02648C"><ellipse cx="4.205" cy="3.387" rx="3.353" ry="3.387"/><ellipse cx="19.205" cy="3.387" rx="3.353" ry="3.387"/><ellipse cx="34.205" cy="3.387" rx="3.353" ry="3.387"/><ellipse cx="34.205" cy="18.387" rx="3.353" ry="3.387"/><ellipse cx="19.205" cy="18.387" rx="3.353" ry="3.387"/></g><path fill="#0698D4" fill-rule="nonzero" d="M35.846 82L33 79.058l1.487-1.537 1.359 1.405L43.513 71 45 72.537z"/><path fill="#FFF" fill-rule="nonzero" d="M27.148 47h9v2h-9zm13 0h2v2h-2z"/><path fill="#242B33" fill-rule="nonzero" d="M51.148 33h4v9h-4zm11 0h4v9h-4zm-32 0h4v9h-4zm10 0h4v9h-4zm32 0h4v9h-4z"/></g><path fill="url(#c)" filter="url(#d)" mask="url(#b)" d="M0 79h105v51H0z"/></g></svg>