<svg width="65" height="64" xmlns="http://www.w3.org/2000/svg"><g fill="none" fill-rule="evenodd"><path d="M-3-4h74v74H-3z"/><g transform="translate(-2 2)"><path fill="#0698D4" d="M4.895 30.003l12.56-7.251 9.5 16.454-16.455 9.5-5.605-8.954z"/><path fill="#047BAD" d="M14.221 30.003l12.56-7.251 9.5 16.454-16.455 9.5-5.605-8.954z"/><path fill="#02648C" d="M24.221 30.003l12.56-7.251 9.5 16.454-16.455 9.5-5.605-8.954z"/><rect fill="#3A4046" x="4" y="37.752" width="53" height="24" rx="2"/><circle fill="#FFF" cx="14" cy="49.752" r="3"/><circle fill="#FFF" cx="25" cy="49.752" r="3"/><circle fill="#FFF" cx="36" cy="49.752" r="3"/><path d="M50.123 13.752h12.14a2 2 0 0 1 1.996 1.881l2.615 44a2 2 0 0 1-1.996 2.119H48.094a2 2 0 0 1-1.998-2.092l2.029-44a2 2 0 0 1 1.998-1.908z" fill="#E8E8E8"/><path d="M4 0h45.5a7 7 0 0 1 7 7v1.052" stroke="#282828" stroke-width="3" stroke-linecap="round"/><path d="M4 8.052h44.092" stroke="#E8E8E8" stroke-width="3" stroke-linecap="round"/></g></g></svg>