<svg width="65" height="63" xmlns="http://www.w3.org/2000/svg" xmlns:xlink="http://www.w3.org/1999/xlink"><defs><path id="a" d="M.648 12.849L13.861.027h37.914l13.093 12.822L33 48.585z"/></defs><g fill="none" fill-rule="evenodd"><path d="M-3-7h74v74H-3z"/><g transform="translate(0 14.415)"><mask id="b" fill="#fff"><use xlink:href="#a"/></mask><use fill-opacity=".574" fill="#282828" xlink:href="#a"/><path fill="#0698D4" mask="url(#b)" transform="matrix(1 0 0 -1 0 61.585)" d="M33 13.585L43.024 48H23.047z"/><path fill="#E8E8E8" mask="url(#b)" d="M11.997-3L23 13.585H-2z"/><path fill="#3A4046" mask="url(#b)" transform="matrix(-1 0 0 1 111 0)" d="M56.997-3L68 13.585H43z"/><path fill="#0698D4" mask="url(#b)" transform="matrix(1 0 0 -1 0 4.585)" d="M43-9l15.047 22.585-26.79-6.265z"/><path fill="#0698D4" mask="url(#b)" transform="rotate(180 21.698 2.293)" d="M20.348-9l15.047 22.585L8 7.585z"/><path fill="#FFF" mask="url(#b)" d="M33.036-.25l9.988 13.835H23.047z"/><path fill="#3A4046" mask="url(#b)" d="M23 13.585L33.036 48 .648 13.585z"/><path fill="#047BAD" mask="url(#b)" d="M43.024 13.585H60.94l-28.183 35z"/><path fill="#1F1F1F" mask="url(#b)" d="M60.941 13.585H65l-31.964 35z"/></g><path d="M45 3.123l-2.902 2.929" stroke="#000" stroke-width="2" stroke-linecap="round"/><path d="M33 1v3.93" stroke="#E8E8E8" stroke-width="2" stroke-linecap="round"/><path d="M20.098 3.123L23 6.052" stroke="#000" stroke-width="2" stroke-linecap="round"/></g></svg>