<svg width="511" height="304" xmlns="http://www.w3.org/2000/svg"><defs><linearGradient x1="40.623%" y1="56.095%" x2="79.575%" y2="37.149%" id="a"><stop stop-color="#FFF" offset="0%"/><stop stop-color="#D8D8D8" offset="100%"/></linearGradient><linearGradient x1="40.623%" y1="55.877%" x2="79.575%" y2="37.609%" id="b"><stop stop-color="#FFF" offset="0%"/><stop stop-color="#D8D8D8" offset="100%"/></linearGradient></defs><g fill="none" fill-rule="evenodd"><path fill="#02648C" d="M322.72 70.491v47.01l-41.103 21.302-43.705-23.95z"/><path fill="#0698D4" d="M409.903 113.772L281.5 179.355 153.439 114.6 280.886 49l41.834 21.491-81.988 44.11 40.919 20.85 82.684-44.154z"/><path fill="#11ADEC" d="M410 113.772v43.273l-127.86 65.666-.523-43.462z"/><path fill="#02648C" d="M281.617 179.25l.522 43.461-128.7-65.984V114.6z"/><path fill="url(#a)" transform="rotate(180 395 202)" d="M423.036 140L511 182.577 357.764 264 279 215.053z"/><path fill="#F1F1F1" d="M22 0v44.764L281.333 179 411 110.688 281.333 44.764l-39.547 18.04 82.872 43.815-43.325 25.138z"/><path fill="#11ADEC" d="M281 219v43.684L324 285l43-21.504z"/><path fill="url(#b)" d="M151.64 156L282 222.925 128.84 304 0 234.151z"/></g></svg>