<?xml version="1.0" encoding="UTF-8"?>
<svg width="23px" height="16px" viewBox="0 0 23 16" version="1.1" xmlns="http://www.w3.org/2000/svg" xmlns:xlink="http://www.w3.org/1999/xlink">
    <!-- Generator: Sketch 55.2 (78181) - https://sketchapp.com -->
    <title>left-arrow</title>
    <desc>Created with Sketch.</desc>
    <g id="Page-1" stroke="none" stroke-width="1" fill="none" fill-rule="evenodd">
        <g id="главная" transform="translate(-678.000000, -545.000000)" fill="#FFFFFF" fill-rule="nonzero">
            <g id="Group-3" transform="translate(412.000000, 532.000000)">
                <g id="left-arrow" transform="translate(277.500000, 21.000000) scale(-1, 1) translate(-277.500000, -21.000000) translate(266.000000, 13.000000)">
                    <path d="M7.50271871,0.240639538 C7.82696322,-0.0802131792 8.33742925,-0.0802131792 8.66167377,0.240639538 C8.97496408,0.550652635 8.97496408,1.06661849 8.66167377,1.37590895 L2.78510704,7.19100312 L22.1769739,7.19100312 C22.6290175,7.19100312 23,7.54654261 23,7.99385755 C23,8.44117249 22.6290175,8.80827424 22.1769739,8.80827424 L2.78510704,8.80827424 L8.66167377,14.6125288 C8.97496408,14.9333815 8.97496408,15.45007 8.66167377,15.7593605 C8.33742925,16.0802132 7.82696322,16.0802132 7.50271871,15.7593605 L0.234967733,8.5676347 C-0.0783225776,8.25762161 -0.0783225776,7.74165575 0.234967733,7.4323653 L7.50271871,0.240639538 Z" id="Path"></path>
                </g>
            </g>
        </g>
    </g>
</svg>