<svg width="166" height="31" xmlns="http://www.w3.org/2000/svg"><g fill="#FFF" fill-rule="evenodd"><path d="M18.275 0v9.266L26.718 14l8.557-4.561z"/><path d="M.275 9v8.897l26 13.103 26-13.164V9.162L26.387 22.265z"/><path d="M77.307 8h4.414v8.535c0 .847-.132 1.646-.396 2.398a5.179 5.179 0 0 1-1.24 1.972c-.563.563-1.154.959-1.772 1.187-.86.319-1.892.478-3.096.478-.697 0-1.457-.049-2.28-.146-.824-.098-1.513-.292-2.066-.581a5.173 5.173 0 0 1-1.518-1.236c-.46-.533-.774-1.084-.943-1.65-.273-.911-.41-1.719-.41-2.422V8h4.414v8.74c0 .781.217 1.392.65 1.831.432.44 1.033.66 1.801.66.762 0 1.36-.217 1.792-.65.433-.433.65-1.046.65-1.84V8zm7.373 0h4.13l5.391 7.92V8h4.17v14.316h-4.17l-5.361-7.86v7.86h-4.16V8zm16.806 0h4.434v14.316h-4.434V8zm6.602 0h13.447v3.535h-4.512v10.781H112.6v-10.78h-4.512V8zm15.469 0h10.937v3.076H128v2.5h5.547v2.89H128v5.85h-4.443V8zm22.129 11.953h-5.04l-.693 2.363h-4.521L140.812 8h4.825l5.38 14.316h-4.628l-.703-2.363zm-.928-3.096l-1.582-5.146-1.572 5.146h3.154zM152.443 8h8.282c1.38 0 2.44.342 3.178 1.025.74.684 1.109 1.53 1.109 2.54 0 .846-.264 1.572-.791 2.177-.352.404-.866.723-1.543.957 1.028.248 1.785.672 2.27 1.275.485.602.728 1.359.728 2.27 0 .742-.173 1.41-.518 2.002a3.812 3.812 0 0 1-1.416 1.406c-.37.215-.93.371-1.68.47-.996.13-1.656.194-1.982.194h-7.637V8zm4.463 5.615h1.924c.69 0 1.17-.119 1.44-.356.27-.238.406-.581.406-1.03 0-.417-.135-.743-.405-.977-.27-.234-.741-.352-1.412-.352h-1.953v2.715zm0 5.625h2.256c.762 0 1.299-.135 1.611-.405.313-.27.47-.633.47-1.089 0-.423-.155-.763-.465-1.02-.309-.258-.85-.386-1.626-.386h-2.246v2.9z" fill-rule="nonzero"/></g></svg>