<svg width="106" height="106" xmlns="http://www.w3.org/2000/svg" xmlns:xlink="http://www.w3.org/1999/xlink"><defs><path id="a" d="M16 16h74v74H16z"/><linearGradient x1="46.483%" y1="-80.511%" x2="46.483%" y2="45.687%" id="c"><stop stop-opacity=".012" offset="0%"/><stop stop-color="#FFF" stop-opacity=".362" offset="43.581%"/><stop stop-color="#FFF" offset="100%"/></linearGradient><filter x="-20%" y="-55.3%" width="140%" height="210.5%" filterUnits="objectBoundingBox" id="d"><feGaussianBlur stdDeviation="7" in="SourceGraphic"/></filter></defs><g fill="none" fill-rule="evenodd"><mask id="b" fill="#fff"><use xlink:href="#a"/></mask><use fill="#F1F1F1" transform="rotate(-45 53 53)" xlink:href="#a"/><g mask="url(#b)" fill-rule="nonzero"><g transform="translate(22 36)"><path d="M.36 10.35v19.83c.008 13.734 7.453 26.394 19.472 33.112l9.964 5.561c.35.196.778.196 1.128 0l9.964-5.561C52.907 56.574 60.352 43.914 60.36 30.18V10.35c0-.635-.517-1.15-1.154-1.15a48.36 48.36 0 0 1-26.84-8.1L31 .194a1.157 1.157 0 0 0-1.28 0l-1.365.908A48.36 48.36 0 0 1 1.514 9.2 1.156 1.156 0 0 0 .36 10.35z" fill="#0698D4"/><path d="M21.55 59.492l7.743 4.36c.352.198.782.198 1.134 0l7.743-4.362c10.61-5.981 17.183-17.255 17.19-29.486V14.373a1.163 1.163 0 0 0-1.062-1.165 53.164 53.164 0 0 1-23.82-8.029 1.154 1.154 0 0 0-1.236 0 53.164 53.164 0 0 1-23.82 8.032 1.163 1.163 0 0 0-1.062 1.165v15.628c.007 12.23 6.58 23.505 17.19 29.488z" fill="#FCFDFD"/><path d="M17.788 28.833v14c0 .645.512 1.167 1.143 1.167H41.79c.631 0 1.143-.522 1.143-1.167v-14h2.286c.5 0 .941-.332 1.09-.819a1.18 1.18 0 0 0-.44-1.307l-14.858-10.5a1.124 1.124 0 0 0-1.3 0l-14.858 10.5c-.41.291-.589.82-.44 1.307.149.487.59.819 1.09.82h2.286z" fill="#02648C"/><path fill="#FFF" d="M33.36 41h-5v-7h5z"/><rect fill="#02648C" x="29.36" y="11" width="3" height="3" rx="1.5"/><rect fill="#02648C" x="48.36" y="19" width="3" height="3" rx="1.5"/><rect fill="#02648C" x="48.36" y="33" width="3" height="3" rx="1.5"/><rect fill="#02648C" x="43.36" y="45" width="3" height="3" rx="1.5"/><rect fill="#02648C" x="29.36" y="56" width="3" height="3" rx="1.5"/><rect fill="#02648C" x="10.36" y="19" width="3" height="3" rx="1.5"/><rect fill="#02648C" x="10.36" y="33" width="3" height="3" rx="1.5"/><rect fill="#02648C" x="15.36" y="45" width="3" height="3" rx="1.5"/></g></g><path fill="url(#c)" filter="url(#d)" mask="url(#b)" d="M0 79h105v38H0z"/></g></svg>