<svg width="106" height="106" xmlns="http://www.w3.org/2000/svg" xmlns:xlink="http://www.w3.org/1999/xlink"><defs><path id="a" d="M16 16h74v74H16z"/><linearGradient x1="46.483%" y1="-80.511%" x2="46.483%" y2="45.687%" id="c"><stop stop-opacity=".012" offset="0%"/><stop stop-color="#FFF" stop-opacity=".362" offset="43.581%"/><stop stop-color="#FFF" stop-opacity=".899" offset="100%"/></linearGradient><filter x="-20%" y="-41.2%" width="140%" height="182.4%" filterUnits="objectBoundingBox" id="d"><feGaussianBlur stdDeviation="7" in="SourceGraphic"/></filter></defs><g fill="none" fill-rule="evenodd"><mask id="b" fill="#fff"><use xlink:href="#a"/></mask><use fill="#F1F1F1" transform="rotate(-45 53 53)" xlink:href="#a"/><g mask="url(#b)" fill-rule="nonzero"><path d="M82.304 95h-58.72c-1.18 0-2.14-1.121-2.14-2.5s.96-2.5 2.14-2.5h58.72c1.18 0 2.14 1.121 2.14 2.5s-.96 2.5-2.14 2.5z" fill="#FFF"/><path d="M32.444 39h20v26h-5.367V47.495c0-1.137-.83-2.06-1.96-2.06H36.94c-1.13 0-2.13.923-2.13 2.06V65h-5.366V42a3 3 0 0 1 3-3z" fill="#02648C"/><path fill="#FFF" d="M42.444 65h-4V50h4z"/><path d="M52.444 39h23v6.436H60.027c-1.105 0-2.083.922-2.083 2.059v8.238c0 1.137.978 2.06 2.083 2.06h15.417V65h-23V39z" fill="#047BAD"/><path fill="#FFF" d="M76.444 50v4h-14v-4z"/><path fill="#000" d="M66.444 90h-4V75h4z"/><path d="M75.444 90h-5.5V72.495c0-1.137-.813-2.06-1.917-2.06h-8c-1.105 0-2.083.923-2.083 2.06V90h-5.5V64h23v26z" fill="#0698D4"/><path fill="#000" d="M29.444 79v-4h14v4z"/><path d="M29.444 82.792h15.674c1.129 0 1.959-.922 1.959-2.06v-8.237c0-1.137-.83-2.06-1.96-2.06H29.445V64h23v26h-23v-7.208z" fill="#047BAD"/></g><path fill="url(#c)" filter="url(#d)" mask="url(#b)" d="M0 79h105v51H0z"/></g></svg>