<svg width="106" height="106" xmlns="http://www.w3.org/2000/svg" xmlns:xlink="http://www.w3.org/1999/xlink"><defs><path id="a" d="M16 16h74v74H16z"/><linearGradient x1="46.483%" y1="-80.511%" x2="46.483%" y2="45.687%" id="c"><stop stop-opacity=".012" offset="0%"/><stop stop-color="#FFF" stop-opacity=".362" offset="43.581%"/><stop stop-color="#FFF" stop-opacity=".899" offset="100%"/></linearGradient><filter x="-20%" y="-41.2%" width="140%" height="182.4%" filterUnits="objectBoundingBox" id="d"><feGaussianBlur stdDeviation="7" in="SourceGraphic"/></filter></defs><g fill="none" fill-rule="evenodd"><mask id="b" fill="#fff"><use xlink:href="#a"/></mask><use fill="#F1F1F1" transform="rotate(-45 53 53)" xlink:href="#a"/><g mask="url(#b)"><path d="M53.898 47v4" stroke="#DDD" stroke-width="2" stroke-linecap="round"/><path fill="#0477A8" d="M39.372 57.889h16.211V65h-16.21z"/><path d="M47.477 57.26c.132 0 .158-.022.158.07V46.966c0 .094-.028.071-.158.071-.129 0-.158.023-.158-.07V57.33c0-.094.029-.07.158-.07z" stroke="#02638A" stroke-width="2" fill="#FFF" fill-rule="nonzero"/><path fill="#3B3B3B" d="M40.372 33h15.053l3.473 14.222h-22z"/><path d="M29 62h48a3 3 0 0 1 3 3v17H26V65a3 3 0 0 1 3-3z" fill="#0698D4"/><path d="M28.898 102h48a3 3 0 0 0 3-3V82h-54v17a3 3 0 0 0 3 3z" fill="#FCFDFD"/><path d="M42.579 75.752H63.42" stroke="#FFF" stroke-width="3" stroke-linecap="round"/><path d="M42.579 88.752H63.42" stroke="#3B3B3B" stroke-width="3" stroke-linecap="round"/></g><path fill="url(#c)" filter="url(#d)" mask="url(#b)" d="M0 79h105v51H0z"/></g></svg>