<?xml version="1.0" encoding="UTF-8"?>
<svg width="359px" height="245px" viewBox="0 0 359 245" version="1.1" xmlns="http://www.w3.org/2000/svg" xmlns:xlink="http://www.w3.org/1999/xlink">
    <!-- Generator: Sketch 55.2 (78181) - https://sketchapp.com -->
    <title>blocks_m</title>
    <desc>Created with Sketch.</desc>
    <defs>
        <rect id="path-1" x="0" y="0" width="359" height="245"></rect>
        <linearGradient x1="35.0620701%" y1="59.0597729%" x2="79.5754815%" y2="37.0247231%" id="linearGradient-3">
            <stop stop-color="#BCBCBC" offset="0%"></stop>
            <stop stop-color="#828282" offset="100%"></stop>
        </linearGradient>
    </defs>
    <g id="Page-1" stroke="none" stroke-width="1" fill="none" fill-rule="evenodd">
        <g id="дома" transform="translate(-484.000000, -1314.000000)">
            <g id="blocks_m" transform="translate(484.000000, 1314.000000)">
                <mask id="mask-2" fill="white">
                    <use xlink:href="#path-1"></use>
                </mask>
                <use id="Rectangle-Copy-4" fill="#BCBCBC" xlink:href="#path-1"></use>
                <polygon id="Path-20-Copy" fill="url(#linearGradient-3)" mask="url(#mask-2)" points="206.95552 77 308.95552 129 206.95552 186 106 129"></polygon>
                <g id="Group-20-Copy-4" mask="url(#mask-2)">
                    <g transform="translate(227.000000, 8.000000)">
                        <polygon id="Path-17" fill="#0698D4" points="0 17.25 102.75 69 102 111 0 59.6678227"></polygon>
                        <polygon id="Path-18" fill="#1AB2F0" points="0 17.25 34.25 0 137 51.4804688 102.75 69"></polygon>
                        <polygon id="Path-19" fill="#0577A5" points="102.75 69 102 111 137 94.0333841 137 51.4804687"></polygon>
                    </g>
                </g>
                <g id="Group-20-Copy-3" mask="url(#mask-2)">
                    <g transform="translate(190.955520, 26.000000)">
                        <polygon id="Path-17" fill="#0698D4" points="0 17.25 102.75 69 102 111 0 59.6678227"></polygon>
                        <polygon id="Path-18" fill="#1AB2F0" points="0 17.25 34.25 0 137 51.4804688 102.75 69"></polygon>
                        <polygon id="Path-19" fill="#0577A5" points="102.75 69 102 111 137 94.0333841 137 51.4804687"></polygon>
                    </g>
                </g>
                <g id="Group-20-Copy-5" mask="url(#mask-2)">
                    <g transform="translate(155.000000, 44.000000)">
                        <polygon id="Path-17" fill="#0698D4" points="0 17.25 102.75 69 102 111 0 59.6678227"></polygon>
                        <polygon id="Path-18" fill="#1AB2F0" points="0 17.25 34.25 0 137 51.4804688 102.75 69"></polygon>
                        <polygon id="Path-19" fill="#0577A5" points="102.75 69 102 111 137 94.0333841 137 51.4804687"></polygon>
                    </g>
                </g>
            </g>
        </g>
    </g>
</svg>