<?xml version="1.0" encoding="UTF-8"?>
<svg width="236px" height="194px" viewBox="0 0 236 194" version="1.1" xmlns="http://www.w3.org/2000/svg" xmlns:xlink="http://www.w3.org/1999/xlink">
    <!-- Generator: Sketch 55.2 (78181) - https://sketchapp.com -->
    <title>cubes_60</title>
    <desc>Created with Sketch.</desc>
    <defs>
        <linearGradient x1="40.6227262%" y1="55.2713252%" x2="79.5754815%" y2="38.8865081%" id="linearGradient-1">
            <stop stop-color="#EEEEEE" offset="0%"></stop>
            <stop stop-color="#D8D8D8" offset="100%"></stop>
        </linearGradient>
    </defs>
    <g id="Home" stroke="none" stroke-width="1" fill="none" fill-rule="evenodd">
        <g id="дома-V1" transform="translate(-533.000000, -1399.000000)">
            <g id="blocks_l" transform="translate(240.000000, 1373.000000)">
                <g id="cubes_60" transform="translate(293.000000, 26.000000)">
                    <g id="Group" transform="translate(107.000000, 40.000000)">
                        <g id="Group-20-Copy-3">
                            <polygon id="Path-17" fill="#0698D4" points="0 16.0067568 95.1312217 64.027027 94.4368332 103 0 55.3674391"></polygon>
                            <polygon id="Path-18" fill="#1AB2F0" points="0 16.0067568 31.7104072 0 127.450408 48.3383373 95.1312217 64.027027"></polygon>
                            <polygon id="Path-19" fill="#0577A5" points="95.1312217 64.027027 94.4368332 103 126.841629 87.2562032 127.450408 48.3383373"></polygon>
                        </g>
                    </g>
                    <g id="Group" transform="translate(74.000000, 56.000000)">
                        <g id="Group-20-Copy-3">
                            <polygon id="Path-17" fill="#0698D4" points="0 16.0067568 95.1312217 64.027027 94.4368332 103 0 55.3674391"></polygon>
                            <polygon id="Path-18" fill="#1AB2F0" points="0 16.0067568 31.7104072 0 127.450408 48.3383373 95.1312217 64.027027"></polygon>
                            <polygon id="Path-19" fill="#0577A5" points="95.1312217 64.027027 94.4368332 103 126.841629 87.2562032 127.450408 48.3383373"></polygon>
                        </g>
                    </g>
                    <g id="Group" transform="translate(108.000000, 0.000000)">
                        <g id="Group-20-Copy-3">
                            <polygon id="Path-17" fill="#0698D4" points="0 16.0067568 95.1312217 64.027027 94.4368332 103 0 55.3674391"></polygon>
                            <polygon id="Path-18" fill="#1AB2F0" points="0 16.0067568 31.7104072 0 127.450408 48.3383373 95.1312217 64.027027"></polygon>
                            <polygon id="Path-19" fill="#0577A5" points="95.1312217 64.027027 94.4368332 103 126.841629 87.2562032 127.450408 48.3383373"></polygon>
                        </g>
                    </g>
                    <polygon id="Path-20-Copy-2" fill="url(#linearGradient-1)" points="73.9713907 112 169 159.097123 92.4713289 196 0 145.14242"></polygon>
                    <g id="Group" transform="translate(41.000000, 72.000000)">
                        <g id="Group-20-Copy-3">
                            <polygon id="Path-17" fill="#0698D4" points="0 16.0067568 95.1312217 64.027027 94.4368332 103 0 55.3674391"></polygon>
                            <polygon id="Path-18" fill="#1AB2F0" points="0 16.0067568 31.7104072 0 127.450408 48.3383373 95.1312217 64.027027"></polygon>
                            <polygon id="Path-19" fill="#0577A5" points="95.1312217 64.027027 94.4368332 103 126.841629 87.2562032 127.450408 48.3383373"></polygon>
                        </g>
                    </g>
                </g>
            </g>
        </g>
    </g>
</svg>