<?xml version="1.0" encoding="UTF-8"?>
<svg width="70px" height="69px" viewBox="0 0 70 69" version="1.1" xmlns="http://www.w3.org/2000/svg" xmlns:xlink="http://www.w3.org/1999/xlink">
    <!-- Generator: Sketch 55.2 (78181) - https://sketchapp.com -->
    <title>icon_4</title>
    <desc>Created with Sketch.</desc>
    <g id="Page-1" stroke="none" stroke-width="1" fill="none" fill-rule="evenodd">
        <g id="главная" transform="translate(-1161.000000, -2409.000000)">
            <g id="icon_4" transform="translate(1160.000000, 2406.000000)">
                <rect id="Rectangle-Copy-8" x="0" y="0" width="74" height="74"></rect>
                <g id="ribbon" transform="translate(1.000000, 3.000000)">
                    <g id="Group" transform="translate(0.855670, 31.000000)" fill-rule="nonzero">
                        <path d="M68.7142969,23.9359431 L55.6474219,1.17813523 C55.3498594,0.663174377 54.8539219,0.291017794 54.2803594,0.152540925 C53.7067969,0.0140640569 53.0987344,0.117921708 52.5984844,0.442476868 L34.4859844,12.2995587 C33.5286094,12.9313594 33.2267344,14.1992883 33.7959844,15.1945907 L46.3022344,36.9181495 C46.6903594,37.5932242 47.4062344,38 48.1695469,38 C48.2601094,38 48.3592969,37.9956726 48.4498594,37.9826904 C49.3166719,37.8658505 50.0239219,37.2383772 50.2524844,36.3945338 L53.6205469,23.6892811 L66.2820469,27.1036014 C67.1272969,27.3372811 68.0156719,27.0257082 68.5504219,26.3333238 C69.0851719,25.6452669 69.1455469,24.6975658 68.7142969,23.9359431 Z" id="Path" fill="#0698D4"></path>
                        <path d="M34.5118594,12.3038861 L16.3993594,0.44680427 C15.9034219,0.117921708 15.2867344,0.0097366548 14.7174844,0.156868327 C14.1439219,0.291017794 13.6479844,0.663174377 13.3547344,1.17813523 L0.287859375,23.9359431 C-0.147703125,24.6975658 -0.083015625,25.6452669 0.447421875,26.3376512 C0.977859375,27.0300356 1.87054687,27.3416085 2.71579687,27.1079288 L15.3772969,23.6936085 L18.7453594,36.3988612 C18.9696094,37.2427046 19.6811719,37.8701779 20.5436719,37.9870178 C20.6385469,37.9956726 20.7377344,38 20.8282969,38 C21.5916094,38 22.3074844,37.5932242 22.6956094,36.9181495 L35.2018594,15.1945907 C35.7754219,14.2036157 35.4735469,12.9313594 34.5118594,12.3038861 Z" id="Path" fill="#E8E8E8"></path>
                    </g>
                    <circle id="Oval" fill="#3A4046" fill-rule="nonzero" cx="33.8556701" cy="24" r="24"></circle>
                    <polygon id="Star" fill="#FFFFFF" points="34 31 25.7710065 35.3262379 27.3426044 26.163119 20.6852088 19.6737621 29.8855032 18.336881 34 10 38.1144968 18.336881 47.3147912 19.6737621 40.6573956 26.163119 42.2289935 35.3262379"></polygon>
                </g>
            </g>
        </g>
    </g>
</svg>