<?xml version="1.0" encoding="UTF-8"?>
<svg width="65px" height="63px" viewBox="0 0 65 63" version="1.1" xmlns="http://www.w3.org/2000/svg" xmlns:xlink="http://www.w3.org/1999/xlink">
    <!-- Generator: Sketch 55.2 (78181) - https://sketchapp.com -->
    <title>icon_2</title>
    <desc>Created with Sketch.</desc>
    <defs>
        <polygon id="path-1" points="0.648328196 12.8487377 13.8612079 0.0269168557 51.7751862 0.0269168557 64.8676904 12.8487377 33 48.585392"></polygon>
    </defs>
    <g id="Page-1" stroke="none" stroke-width="1" fill="none" fill-rule="evenodd">
        <g id="главная" transform="translate(-553.000000, -2413.000000)">
            <g id="icon_2" transform="translate(550.000000, 2406.000000)">
                <rect id="Rectangle-Copy-4" x="0" y="0" width="74" height="74"></rect>
                <g id="Group-9" transform="translate(3.000000, 8.000000)">
                    <g id="Group-8" transform="translate(0.000000, 13.414608)">
                        <mask id="mask-2" fill="white">
                            <use xlink:href="#path-1"></use>
                        </mask>
                        <use id="Path-6" fill-opacity="0.573918269" fill="#282828" xlink:href="#path-1"></use>
                        <polygon id="Triangle" fill="#0698D4" mask="url(#mask-2)" transform="translate(33.035561, 30.792696) scale(1, -1) translate(-33.035561, -30.792696) " points="33 13.585392 43.023707 48 23.0474141 48"></polygon>
                        <polygon id="Triangle" fill="#E8E8E8" mask="url(#mask-2)" points="11.9974907 -3 23 13.585392 -2 13.585392"></polygon>
                        <polygon id="Triangle-Copy" fill="#3A4046" mask="url(#mask-2)" transform="translate(55.500000, 5.292696) scale(-1, 1) translate(-55.500000, -5.292696) " points="56.9974907 -3 68 13.585392 43 13.585392"></polygon>
                        <polygon id="Triangle-Copy-2" fill="#0698D4" mask="url(#mask-2)" transform="translate(44.652282, 2.292696) scale(1, -1) translate(-44.652282, -2.292696) " points="43 -9 58.0474141 13.585392 31.2571509 7.32006048"></polygon>
                        <polygon id="Triangle-Copy-2" fill="#0698D4" mask="url(#mask-2)" transform="translate(21.697599, 2.292696) scale(-1, -1) translate(-21.697599, -2.292696) " points="20.3477842 -9 35.3951983 13.585392 8 7.58539195"></polygon>
                        <polygon id="Triangle" fill="#FFFFFF" mask="url(#mask-2)" points="33.0355605 -0.250899642 43.023707 13.585392 23.0474141 13.585392"></polygon>
                        <polygon id="Path-2" fill="#3A4046" mask="url(#mask-2)" points="23 13.585392 33.0355605 48 0.648328196 13.585392"></polygon>
                        <polygon id="Path-3" fill="#047BAD" mask="url(#mask-2)" points="43.023707 13.585392 60.9413014 13.585392 32.7580093 48.585392"></polygon>
                        <polygon id="Path-7" fill="#1F1F1F" mask="url(#mask-2)" points="60.9413014 13.585392 65 13.585392 33.0355605 48.585392"></polygon>
                    </g>
                    <path d="M42.0978386,2.1229306 L45,5.05199615" id="Path-8" stroke="#000000" stroke-width="2" stroke-linecap="round" transform="translate(43.548919, 3.587463) scale(-1, 1) translate(-43.548919, -3.587463) "></path>
                    <path d="M32.8043228,0 L32.8043228,3.92906555" id="Path-8-Copy" stroke="#E8E8E8" stroke-width="2" stroke-linecap="round" transform="translate(32.902161, 2.000000) scale(-1, 1) translate(-32.902161, -2.000000) "></path>
                    <path d="M20.0978386,2.1229306 L23,5.05199615" id="Path-8" stroke="#000000" stroke-width="2" stroke-linecap="round"></path>
                </g>
            </g>
        </g>
    </g>
</svg>