<?xml version="1.0" encoding="UTF-8"?>
<svg width="106px" height="106px" viewBox="0 0 106 106" version="1.1" xmlns="http://www.w3.org/2000/svg" xmlns:xlink="http://www.w3.org/1999/xlink">
    <!-- Generator: Sketch 55.2 (78181) - https://sketchapp.com -->
    <title>bustraia_okupaemost</title>
    <desc>Created with Sketch.</desc>
    <defs>
        <rect id="path-1" x="16" y="16" width="74" height="74"></rect>
        <linearGradient x1="46.482561%" y1="-80.5105163%" x2="46.482561%" y2="45.6870768%" id="linearGradient-3">
            <stop stop-color="#000000" stop-opacity="0.0119919143" offset="0%"></stop>
            <stop stop-color="#FFFFFF" stop-opacity="0.361642264" offset="43.5810811%"></stop>
            <stop stop-color="#FFFFFF" stop-opacity="0.899393575" offset="100%"></stop>
        </linearGradient>
        <filter x="-20.0%" y="-41.2%" width="140.0%" height="182.4%" filterUnits="objectBoundingBox" id="filter-4">
            <feGaussianBlur stdDeviation="7" in="SourceGraphic"></feGaussianBlur>
        </filter>
    </defs>
    <g id="main" stroke="none" stroke-width="1" fill="none" fill-rule="evenodd">
        <g id="главная" transform="translate(-1164.000000, -2408.000000)">
            <g id="bustraia_okupaemost" transform="translate(1164.000000, 2408.000000)">
                <mask id="mask-2" fill="white">
                    <use xlink:href="#path-1"></use>
                </mask>
                <use id="Rectangle-Copy-9" fill="#F1F1F1" transform="translate(53.000000, 53.000000) rotate(-45.000000) translate(-53.000000, -53.000000) " xlink:href="#path-1"></use>
                <g id="cash-back-(1)" mask="url(#mask-2)">
                    <g transform="translate(21.651724, 25.000000)">
                        <g id="Group-12" stroke="none" fill="none" fill-rule="evenodd" transform="translate(9.848276, 15.000000)">
                            <path d="M41.2440406,9.68272886 L24.2318786,0.305715733 C23.0526091,-0.344262774 21.5642366,0.0762668623 20.9080642,1.24402486 L16.7466808,8.65210835 L14.0851748,13.3899996 L0.808708751,37.0247528 C0.152536318,38.1928907 0.57668986,39.6672137 1.75595943,40.3171922 L18.7681214,49.6942053 C19.9473909,50.3441838 21.4357634,49.9240341 22.0919358,48.7558962 L42.1912912,12.9751682 C42.8474637,11.8074102 42.4233101,10.3327074 41.2440406,9.68272886 L41.2440406,9.68272886 Z" id="Path" fill="#FFFFFF" fill-rule="nonzero"></path>
                            <g id="Group-7" transform="translate(0.500000, 2.000000)" fill-rule="nonzero">
                                <path d="M49.6080189,17.5687623 L45.1862531,10.6779137 L43.3878085,7.87547819 L39.0543405,1.1224542 C38.3227309,-0.0175915229 36.814025,-0.343043113 35.6852669,0.395882562 L7.78089783,18.6624804 L3.31899679,21.5834374 L1.11117186,23.0288594 C-0.0175862844,23.7677851 -0.33943334,25.291578 0.391793996,26.4316237 L10.9454724,42.8775458 C11.677082,44.0175915 13.1857878,44.3430431 14.314546,43.6041174 L48.8890232,20.9711406 C50.0173991,20.232601 50.3396284,18.708422 49.6080189,17.5687623 Z" id="Path" fill="#0698D4"></path>
                                <ellipse id="Oval" fill="#FFFFFF" transform="translate(24.554213, 21.474459) rotate(-4.815954) translate(-24.554213, -21.474459) " cx="24.554213" cy="21.474459" rx="8.64283197" ry="8.66084966"></ellipse>
                                <path d="M28.6006524,21.1315889 C27.7939881,20.0689688 26.6366367,19.7872026 24.6143129,20.2017963 C23.1519979,20.4746118 22.4791485,20.4946613 22.1834135,20.1047713 C21.9325631,19.7743136 21.9719945,19.2831025 22.8709448,18.7854468 C23.8667956,18.2348033 24.7091159,18.1538896 25.16761,18.0851486 L24.5560049,16.5295272 C23.9561453,16.5932557 23.2077891,16.7719105 22.2547255,17.2495168 L21.4656794,16.2105263 L20.1103324,16.960232 L20.9618813,18.0815684 C19.6702955,19.1481268 19.4311907,20.4370191 20.2202367,21.4760096 C21.0898234,22.6209756 22.5479435,22.6528399 24.3504586,22.2593697 C25.5979987,21.9883443 26.2561663,22.027011 26.5963664,22.4752592 C26.9550237,22.947495 26.6127262,23.505657 25.8245191,23.9417322 C24.9255687,24.4390299 23.9213283,24.6423884 23.1339602,24.692512 L23.7677978,26.3032694 C24.4905657,26.2721212 25.5510167,25.9874908 26.5044998,25.5102426 L27.3560487,26.6315789 L28.7118152,25.8818732 L27.797344,24.677833 C29.2084822,23.561509 29.3989271,22.1823942 28.6006524,21.1315889 L28.6006524,21.1315889 Z" id="Path" fill="#0596D2"></path>
                            </g>
                        </g>
                        <path d="M35.5344548,10.9768184 C35.5344589,10.9749152 35.534461,10.9730116 35.534461,10.9711077 C35.5346625,10.9784839 35.5347217,10.9806515 35.5344548,10.9768184 Z M35.5344548,10.9768184 C35.5343437,10.9752233 35.5341762,10.9725889 35.5339389,10.9688582 C35.5337416,10.9661117 35.5337416,10.9661117 35.5335132,10.9628912 C35.532,10.9412503 35.532,10.9412503 35.5309384,10.8909685 C35.5456087,9.97679649 35.088003,9.11538679 34.293499,8.6160162 L22.0427468,0.915952038 C20.7896191,0.128180282 19.1262318,0.492879718 18.3301691,1.72784718 C17.5363832,2.95885775 17.9035103,4.59147306 19.1526461,5.37663692 L25.2452614,9.20581379 L24.1567795,9.50943991 C10.4877753,13.3223341 0.848275978,25.7035744 0.848275978,39.9123522 C0.848275978,57.328098 15.2022984,71.5 32.848276,71.5 C50.4940408,71.5 64.848276,57.3279861 64.848276,39.9123522 C64.848276,38.4526993 63.646927,37.2665927 62.162091,37.2665927 C60.677255,37.2665927 59.475906,38.4526993 59.475906,39.9123522 C59.475906,54.4138333 47.5299106,66.2081592 32.8486021,66.2081592 C18.1671907,66.2081592 6.22129814,54.4137316 6.22129814,39.9123522 C6.22129814,27.8136279 14.6087191,17.3374818 26.3364192,14.4150049 L27.5620205,14.109592 L22.7818934,21.5228548 C21.9881075,22.7538654 22.3552345,24.3864807 23.6045425,25.1717528 C24.0416142,25.4466982 24.5389175,25.5875588 25.0463455,25.5875588 C25.9607416,25.5875588 26.8179893,25.1332981 27.3169852,24.3597907 L34.7116343,12.8913388 L34.7754759,12.811585 C35.2583597,12.3208877 35.5329557,11.6704838 35.5344548,10.9768184 Z" id="Path" stroke="#F1F1F1" fill="#242B33" fill-rule="nonzero"></path>
                    </g>
                </g>
                <rect id="Rectangle" fill="url(#linearGradient-3)" filter="url(#filter-4)" mask="url(#mask-2)" x="-9.09494702e-13" y="69" width="105" height="51"></rect>
            </g>
        </g>
    </g>
</svg>