<?xml version="1.0" encoding="UTF-8"?>
<svg width="32px" height="32px" viewBox="0 0 32 32" version="1.1" xmlns="http://www.w3.org/2000/svg" xmlns:xlink="http://www.w3.org/1999/xlink">
    <!-- Generator: Sketch 55.2 (78181) - https://sketchapp.com -->
    <title>instagram</title>
    <desc>Created with Sketch.</desc>
    <g id="Page-1" stroke="none" stroke-width="1" fill="none" fill-rule="evenodd">
        <g id="главная" transform="translate(-1306.000000, -3656.000000)" fill="#242B33">
            <g id="Group-5" transform="translate(292.000000, 3652.000000)">
                <g id="instagram" transform="translate(1014.000000, 4.000000)">
                    <path d="M16.0000318,0 C20.3453391,0 20.8902094,0.018418509 22.5967795,0.0962843437 C24.299793,0.173959642 25.4628901,0.444457676 26.480608,0.840011035 C27.5327494,1.24883842 28.4250309,1.79593165 29.3145814,2.68541861 C30.2040683,3.57496909 30.7511616,4.46725058 31.1600525,5.51939203 C31.5555423,6.53710992 31.8260404,7.70020701 31.9037157,9.40322046 C31.9815815,11.1097906 32,11.6546609 32,16.0000318 C32,20.3453391 31.9815815,20.8902094 31.9037157,22.5967795 C31.8260404,24.299793 31.5555423,25.4628901 31.1600525,26.480608 C30.7511616,27.5327494 30.2040683,28.4250309 29.3145814,29.3145814 C28.4250309,30.2040683 27.5327494,30.7511616 26.480608,31.1600525 C25.4628901,31.5555423 24.299793,31.8260404 22.5967795,31.9037157 C20.8902094,31.9815815 20.3453391,32 16.0000318,32 C11.6546609,32 11.1097906,31.9815815 9.40322046,31.9037157 C7.70020701,31.8260404 6.53710992,31.5555423 5.51939203,31.1600525 C4.46725058,30.7511616 3.57496909,30.2040683 2.68541861,29.3145814 C1.79593165,28.4250309 1.24883842,27.5327494 0.840011035,26.480608 C0.444457676,25.4628901 0.173959642,24.299793 0.0962843437,22.5967795 C0.018418509,20.8902094 0,20.3453391 0,16.0000318 C0,11.6546609 0.018418509,11.1097906 0.0962843437,9.40322046 C0.173959642,7.70020701 0.444457676,6.53710992 0.840011035,5.51939203 C1.24883842,4.46725058 1.79593165,3.57496909 2.68541861,2.68541861 C3.57496909,1.79593165 4.46725058,1.24883842 5.51939203,0.840011035 C6.53710992,0.444457676 7.70020701,0.173959642 9.40322046,0.0962843437 C11.1097906,0.018418509 11.6546609,0 16.0000318,0 Z M16.0000318,2.88287773 C11.7278268,2.88287773 11.2217624,2.89920034 9.534627,2.97617701 C7.97464279,3.04731056 7.12745489,3.30796422 6.56365798,3.52708096 C5.81681919,3.81733126 5.28382565,4.16404382 4.72396649,4.72396649 C4.16404382,5.28382565 3.81733126,5.81681919 3.52708096,6.56365798 C3.30796422,7.12745489 3.04731056,7.97464279 2.97617701,9.534627 C2.89920034,11.2217624 2.88287773,11.7278268 2.88287773,16.0000318 C2.88287773,20.2721732 2.89920034,20.7782376 2.97617701,22.465373 C3.04731056,24.0253572 3.30796422,24.8725451 3.52708096,25.436342 C3.81733126,26.1831808 4.16410733,26.7161743 4.72396649,27.2760335 C5.28382565,27.8359562 5.81681919,28.1826687 6.56365798,28.472919 C7.12745489,28.6920358 7.97464279,28.9526894 9.534627,29.023823 C11.2215719,29.1007997 11.7275093,29.1171223 16.0000318,29.1171223 C20.2724907,29.1171223 20.7784916,29.1007997 22.465373,29.023823 C24.0253572,28.9526894 24.8725451,28.6920358 25.436342,28.472919 C26.1831808,28.1826687 26.7161743,27.8359562 27.2760335,27.2760335 C27.8359562,26.7161743 28.1826687,26.1831808 28.472919,25.436342 C28.6920358,24.8725451 28.9526894,24.0253572 29.023823,22.465373 C29.1007997,20.7782376 29.1171223,20.2721732 29.1171223,16.0000318 C29.1171223,11.7278268 29.1007997,11.2217624 29.023823,9.534627 C28.9526894,7.97464279 28.6920358,7.12745489 28.472919,6.56365798 C28.1826687,5.81681919 27.8359562,5.28382565 27.2760335,4.72396649 C26.7161743,4.16404382 26.1831808,3.81733126 25.436342,3.52708096 C24.8725451,3.30796422 24.0253572,3.04731056 22.465373,2.97617701 C20.7782376,2.89920034 20.2721732,2.88287773 16.0000318,2.88287773 Z M16.0000318,7.78378893 C20.5377173,7.78378893 24.2162111,11.4622827 24.2162111,16.0000318 C24.2162111,20.5377173 20.5377173,24.2162111 16.0000318,24.2162111 C11.4622827,24.2162111 7.78378893,20.5377173 7.78378893,16.0000318 C7.78378893,11.4622827 11.4622827,7.78378893 16.0000318,7.78378893 Z M16.0000318,21.3333333 C18.9455324,21.3333333 21.3333333,18.9455324 21.3333333,16.0000318 C21.3333333,13.0544676 18.9455324,10.6666667 16.0000318,10.6666667 C13.0544676,10.6666667 10.6666667,13.0544676 10.6666667,16.0000318 C10.6666667,18.9455324 13.0544676,21.3333333 16.0000318,21.3333333 Z M26.4608557,7.45917859 C26.4608557,8.51957661 25.6012194,9.37914937 24.5408214,9.37914937 C23.4804869,9.37914937 22.6208506,8.51957661 22.6208506,7.45917859 C22.6208506,6.39878057 23.4804869,5.53914429 24.5408214,5.53914429 C25.6012194,5.53914429 26.4608557,6.39878057 26.4608557,7.45917859 Z" id="Instagram"></path>
                </g>
            </g>
        </g>
    </g>
</svg>