<?xml version="1.0" encoding="UTF-8"?>
<svg width="166px" height="31px" viewBox="0 0 166 31" version="1.1" xmlns="http://www.w3.org/2000/svg" xmlns:xlink="http://www.w3.org/1999/xlink">
    <!-- Generator: sketchtool 55.2 (78181) - https://sketchapp.com -->
    <title>E66FC5B8-B2FA-400D-9E65-21C06F1DF677</title>
    <desc>Created with sketchtool.</desc>
    <g id="Home" stroke="none" stroke-width="1" fill="none" fill-rule="evenodd">
        <g id="дома-V1" transform="translate(-122.000000, -60.000000)" fill="#FFFFFF">
            <g id="logo_gorizontal" transform="translate(122.000000, 60.000000)">
                <g id="Group-5-Copy-2">
                    <polygon id="Path-11" points="18.2747354 0 18.2747354 9.26639344 26.7179825 14 35.2747354 9.43852459"></polygon>
                    <polygon id="Path-12" points="0.274735389 9 0.274735389 17.8970588 26.2747354 31 52.2747354 17.8363971 52.2747354 9.16176471 26.3871568 22.2647059"></polygon>
                </g>
                <path d="M77.3066406,8 L81.7207031,8 L81.7207031,16.5351562 C81.7207031,17.3815146 81.5888685,18.1806603 81.3251953,18.9326172 C81.0615221,19.6845741 80.6481148,20.3421196 80.0849609,20.9052734 C79.5218071,21.4684273 78.9309927,21.8639312 78.3125,22.0917969 C77.4531207,22.4108089 76.42123,22.5703125 75.2167969,22.5703125 C74.5201788,22.5703125 73.7600953,22.5214849 72.9365234,22.4238281 C72.1129516,22.3261714 71.4244819,22.1324884 70.8710938,21.8427734 C70.3177056,21.5530584 69.8115257,21.1412787 69.3525391,20.6074219 C68.8935524,20.073565 68.5794279,19.5234403 68.4101562,18.9570312 C68.1367174,18.0455684 68,17.2382848 68,16.5351562 L68,8 L72.4140625,8 L72.4140625,16.7402344 C72.4140625,17.5214883 72.6305317,18.1318337 73.0634766,18.5712891 C73.4964214,19.0107444 74.0970014,19.2304688 74.8652344,19.2304688 C75.6269569,19.2304688 76.2242817,19.0139996 76.6572266,18.5810547 C77.0901714,18.1481098 77.3066406,17.5345092 77.3066406,16.7402344 L77.3066406,8 Z M84.6796875,8 L88.8105469,8 L94.2011719,15.9199219 L94.2011719,8 L98.3710938,8 L98.3710938,22.3164062 L94.2011719,22.3164062 L88.8398438,14.4550781 L88.8398438,22.3164062 L84.6796875,22.3164062 L84.6796875,8 Z M101.486328,8 L105.919922,8 L105.919922,22.3164062 L101.486328,22.3164062 L101.486328,8 Z M108.087891,8 L121.535156,8 L121.535156,11.5351562 L117.023438,11.5351562 L117.023438,22.3164062 L112.599609,22.3164062 L112.599609,11.5351562 L108.087891,11.5351562 L108.087891,8 Z M123.556641,8 L134.494141,8 L134.494141,11.0761719 L128,11.0761719 L128,13.5761719 L133.546875,13.5761719 L133.546875,16.4667969 L128,16.4667969 L128,22.3164062 L123.556641,22.3164062 L123.556641,8 Z M145.685547,19.953125 L140.646484,19.953125 L139.953125,22.3164062 L135.431641,22.3164062 L140.8125,8 L145.636719,8 L151.017578,22.3164062 L146.388672,22.3164062 L145.685547,19.953125 Z M144.757812,16.8574219 L143.175781,11.7109375 L141.603516,16.8574219 L144.757812,16.8574219 Z M152.443359,8 L160.724609,8 C162.104825,8 163.164384,8.34179346 163.90332,9.02539062 C164.642256,9.70898779 165.011719,10.5553335 165.011719,11.5644531 C165.011719,12.4108115 164.74805,13.1367157 164.220703,13.7421875 C163.869139,14.1458354 163.354821,14.4648426 162.677734,14.6992188 C163.706385,14.9466158 164.463214,15.3714163 164.948242,15.9736328 C165.433271,16.5758494 165.675781,17.3326777 165.675781,18.2441406 C165.675781,18.9863318 165.503257,19.6536429 165.158203,20.2460938 C164.813149,20.8385446 164.341149,21.3072899 163.742188,21.6523438 C163.371092,21.8671886 162.811202,22.023437 162.0625,22.1210938 C161.066401,22.2513027 160.405601,22.3164062 160.080078,22.3164062 L152.443359,22.3164062 L152.443359,8 Z M156.90625,13.6152344 L158.830078,13.6152344 C159.520186,13.6152344 160.000324,13.4964205 160.270508,13.2587891 C160.540691,13.0211577 160.675781,12.6777366 160.675781,12.2285156 C160.675781,11.8118469 160.540691,11.4863293 160.270508,11.2519531 C160.000324,11.017577 159.529951,10.9003906 158.859375,10.9003906 L156.90625,10.9003906 L156.90625,13.6152344 Z M156.90625,19.2402344 L159.162109,19.2402344 C159.923832,19.2402344 160.460936,19.1051446 160.773438,18.8349609 C161.085939,18.5647773 161.242188,18.2018252 161.242188,17.7460938 C161.242188,17.3229146 161.087567,16.9827487 160.77832,16.7255859 C160.469074,16.4684232 159.927087,16.3398438 159.152344,16.3398438 L156.90625,16.3398438 L156.90625,19.2402344 Z" id="UNITFAB" fill-rule="nonzero"></path>
            </g>
        </g>
    </g>
</svg>