<?xml version="1.0" encoding="UTF-8"?>
<svg width="106px" height="106px" viewBox="0 0 106 106" version="1.1" xmlns="http://www.w3.org/2000/svg" xmlns:xlink="http://www.w3.org/1999/xlink">
    <!-- Generator: Sketch 55.2 (78181) - https://sketchapp.com -->
    <title>nadegnii</title>
    <desc>Created with Sketch.</desc>
    <defs>
        <rect id="path-1" x="16" y="16" width="74" height="74"></rect>
        <linearGradient x1="46.482561%" y1="-80.5105163%" x2="46.482561%" y2="45.6870768%" id="linearGradient-3">
            <stop stop-color="#000000" stop-opacity="0.0119919143" offset="0%"></stop>
            <stop stop-color="#FFFFFF" stop-opacity="0.361642264" offset="43.5810811%"></stop>
            <stop stop-color="#FFFFFF" offset="100%"></stop>
        </linearGradient>
        <filter x="-20.0%" y="-55.3%" width="140.0%" height="210.5%" filterUnits="objectBoundingBox" id="filter-4">
            <feGaussianBlur stdDeviation="7" in="SourceGraphic"></feGaussianBlur>
        </filter>
    </defs>
    <g id="Home" stroke="none" stroke-width="1" fill="none" fill-rule="evenodd">
        <g id="дома-V1" transform="translate(-240.000000, -886.000000)">
            <g id="nadegnii" transform="translate(240.000000, 886.000000)">
                <mask id="mask-2" fill="white">
                    <use xlink:href="#path-1"></use>
                </mask>
                <use id="Rectangle-Copy-9" fill="#F1F1F1" transform="translate(53.000000, 53.000000) rotate(-45.000000) translate(-53.000000, -53.000000) " xlink:href="#path-1"></use>
                <g id="shield-(3)" mask="url(#mask-2)" fill-rule="nonzero">
                    <g transform="translate(22.000000, 36.000000)">
                        <path d="M0.36,10.3500227 L0.36,30.1803366 C0.368164875,43.9141315 7.81332105,56.5741657 19.8323077,63.2918087 L29.7957692,68.8531285 C30.1462641,69.0489572 30.5737359,69.0489572 30.9242308,68.8531285 L40.8876923,63.2918087 C52.906679,56.5741657 60.3518351,43.9141315 60.36,30.1803366 L60.36,10.3500227 C60.36,9.71490444 59.8434055,9.20003933 59.2061538,9.20003933 C49.6519261,9.20865912 40.3102549,6.38976425 32.3653846,1.10070622 L31.0003846,0.19336931 C30.6126498,-0.0644564368 30.1073502,-0.0644564368 29.7196154,0.19336931 L28.3546154,1.10070622 C20.4097451,6.38976425 11.0680739,9.20865912 1.51384615,9.20003933 C1.20782713,9.20003933 0.914341843,9.32119795 0.697953714,9.53686167 C0.481565585,9.7525254 0.36,10.0450282 0.36,10.3500227 Z" id="Path" fill="#0698D4"></path>
                        <path d="M21.5504797,59.4915056 L29.2932047,63.8511631 C29.6452926,64.0496123 30.0747074,64.0496123 30.4267953,63.8511631 L38.1695203,59.4903402 C48.780275,53.5090324 55.3532072,42.2346993 55.36,30.0040922 L55.36,14.3729545 C55.3621269,13.7657055 54.9001109,13.2585877 54.2982657,13.2075823 C45.8357393,12.4758577 37.6692277,9.72348594 30.4777953,5.17933302 C30.100263,4.94022233 29.619737,4.94022233 29.2422047,5.17933302 C22.0510881,9.72471755 13.884556,12.4782948 5.42173433,13.2110784 C4.81988907,13.2620838 4.35787307,13.7692016 4.36,14.3764506 L4.36,30.0040922 C4.36710969,42.2349154 10.9398975,53.5094464 21.5504797,59.4915056 Z" id="Path" fill="#FCFDFD"></path>
                        <path d="M17.7881999,28.83312 L17.7881999,42.8333169 C17.7881999,43.4776582 18.2998896,44 18.9310908,44 L41.7889092,44 C42.4201104,44 42.9318001,43.4776582 42.9318001,42.8333169 L42.9318001,28.83312 L45.2175819,28.83312 C45.7173387,28.8328714 46.1589799,28.5011872 46.3079554,28.0142207 C46.4569309,27.5272541 46.278687,26.9979534 45.8678869,26.7074235 L31.0103049,16.2072758 C30.6190345,15.9309081 30.1009655,15.9309081 29.7096951,16.2072758 L14.8521131,26.7074235 C14.441313,26.9979534 14.2630691,27.5272541 14.4120446,28.0142207 C14.5610201,28.5011872 15.0026613,28.8328714 15.5024181,28.83312 L17.7881999,28.83312 Z" id="Path" fill="#02648C"></path>
                        <polygon id="Path" fill="#FFFFFF" points="33.36 41 28.36 41 28.36 34 33.36 34"></polygon>
                        <rect id="Rectangle" fill="#02648C" x="29.36" y="11" width="3" height="3" rx="1.5"></rect>
                        <rect id="Rectangle" fill="#02648C" x="48.36" y="19" width="3" height="3" rx="1.5"></rect>
                        <rect id="Rectangle" fill="#02648C" x="48.36" y="33" width="3" height="3" rx="1.5"></rect>
                        <rect id="Rectangle" fill="#02648C" x="43.36" y="45" width="3" height="3" rx="1.5"></rect>
                        <rect id="Rectangle" fill="#02648C" x="29.36" y="56" width="3" height="3" rx="1.5"></rect>
                        <rect id="Rectangle" fill="#02648C" x="10.36" y="19" width="3" height="3" rx="1.5"></rect>
                        <rect id="Rectangle" fill="#02648C" x="10.36" y="33" width="3" height="3" rx="1.5"></rect>
                        <rect id="Rectangle" fill="#02648C" x="15.36" y="45" width="3" height="3" rx="1.5"></rect>
                    </g>
                </g>
                <rect id="Rectangle" fill="url(#linearGradient-3)" filter="url(#filter-4)" mask="url(#mask-2)" x="0" y="79" width="105" height="38"></rect>
            </g>
        </g>
    </g>
</svg>