<?xml version="1.0" encoding="UTF-8"?>
<svg width="106px" height="106px" viewBox="0 0 106 106" version="1.1" xmlns="http://www.w3.org/2000/svg" xmlns:xlink="http://www.w3.org/1999/xlink">
    <!-- Generator: Sketch 55.2 (78181) - https://sketchapp.com -->
    <title>sovremennii</title>
    <desc>Created with Sketch.</desc>
    <defs>
        <rect id="path-1" x="16" y="16" width="74" height="74"></rect>
        <linearGradient x1="46.482561%" y1="-80.5105163%" x2="46.482561%" y2="45.6870768%" id="linearGradient-3">
            <stop stop-color="#000000" stop-opacity="0.0119919143" offset="0%"></stop>
            <stop stop-color="#FFFFFF" stop-opacity="0.361642264" offset="43.5810811%"></stop>
            <stop stop-color="#FFFFFF" stop-opacity="0.899393575" offset="100%"></stop>
        </linearGradient>
        <filter x="-20.0%" y="-41.2%" width="140.0%" height="182.4%" filterUnits="objectBoundingBox" id="filter-4">
            <feGaussianBlur stdDeviation="7" in="SourceGraphic"></feGaussianBlur>
        </filter>
    </defs>
    <g id="Home" stroke="none" stroke-width="1" fill="none" fill-rule="evenodd">
        <g id="дома-V1" transform="translate(-550.000000, -886.000000)">
            <g id="sovremennii" transform="translate(550.000000, 886.000000)">
                <mask id="mask-2" fill="white">
                    <use xlink:href="#path-1"></use>
                </mask>
                <use id="Rectangle-Copy-9" fill="#F1F1F1" transform="translate(53.000000, 53.000000) rotate(-45.000000) translate(-53.000000, -53.000000) " xlink:href="#path-1"></use>
                <g id="modern-house-(1)" mask="url(#mask-2)" fill-rule="nonzero">
                    <g transform="translate(21.000000, 39.000000)" id="Path">
                        <path d="M61.3040393,56 L2.58328461,56 C1.40340159,56 0.443661972,54.8786111 0.443661972,53.5 C0.443661972,52.1213889 1.40340159,51 2.58328461,51 L61.3040393,51 C62.4839223,51 63.443662,52.1213889 63.443662,53.5 C63.443662,54.8786111 62.4839223,56 61.3040393,56 Z" fill="#FFFFFF"></path>
                        <path d="M11.443662,0 L31.443662,0 L31.443662,26 L26.0769953,26 L26.0769953,8.4950495 C26.0769953,7.35774257 25.2466953,6.43564356 24.1176509,6.43564356 L15.9398731,6.43564356 C14.8108286,6.43564356 13.8103286,7.35774257 13.8103286,8.4950495 L13.8103286,26 L8.44366197,26 L8.44366197,3 C8.44366197,1.34314575 9.78680772,3.04359188e-16 11.443662,0 Z" fill="#02648C"></path>
                        <polygon fill="#FFFFFF" points="21.443662 26 17.443662 26 17.443662 11 21.443662 11"></polygon>
                        <path d="M31.443662,0 L54.443662,0 L54.443662,6.43564356 L39.026912,6.43564356 C37.922412,6.43564356 36.943662,7.35774257 36.943662,8.4950495 L36.943662,16.7326733 C36.943662,17.8699802 37.922412,18.7920792 39.026912,18.7920792 L54.443662,18.7920792 L54.443662,26 L31.443662,26 L31.443662,0 Z" fill="#047BAD"></path>
                        <polygon fill="#FFFFFF" points="55.443662 11 55.443662 15 41.443662 15 41.443662 11"></polygon>
                        <polygon fill="#000000" points="45.443662 51 41.443662 51 41.443662 36 45.443662 36"></polygon>
                        <path d="M54.443662,51 L48.943662,51 L48.943662,33.4950495 C48.943662,32.3577426 48.131412,31.4356436 47.026912,31.4356436 L39.026912,31.4356436 C37.922412,31.4356436 36.943662,32.3577426 36.943662,33.4950495 L36.943662,51 L31.443662,51 L31.443662,25 L54.443662,25 L54.443662,51 Z" fill="#0698D4"></path>
                        <polygon fill="#000000" points="8.44366197 40 8.44366197 36 22.443662 36 22.443662 40"></polygon>
                        <path d="M8.44366197,43.7920792 L24.1176509,43.7920792 C25.2466953,43.7920792 26.0769953,42.8699802 26.0769953,41.7326733 L26.0769953,33.4950495 C26.0769953,32.3577426 25.2466953,31.4356436 24.1176509,31.4356436 L8.44366197,31.4356436 L8.44366197,25 L31.443662,25 L31.443662,51 L8.44366197,51 L8.44366197,43.7920792 Z" fill="#047BAD"></path>
                    </g>
                </g>
                <rect id="Rectangle" fill="url(#linearGradient-3)" filter="url(#filter-4)" mask="url(#mask-2)" x="-2.27373675e-13" y="79" width="105" height="51"></rect>
            </g>
        </g>
    </g>
</svg>