<?xml version="1.0" encoding="UTF-8"?>
<svg width="106px" height="106px" viewBox="0 0 106 106" version="1.1" xmlns="http://www.w3.org/2000/svg" xmlns:xlink="http://www.w3.org/1999/xlink">
    <!-- Generator: Sketch 55.2 (78181) - https://sketchapp.com -->
    <title>dostupnii</title>
    <desc>Created with Sketch.</desc>
    <defs>
        <rect id="path-1" x="16" y="16" width="74" height="74"></rect>
        <linearGradient x1="46.482561%" y1="-80.5105163%" x2="46.482561%" y2="45.6870768%" id="linearGradient-3">
            <stop stop-color="#000000" stop-opacity="0.0119919143" offset="0%"></stop>
            <stop stop-color="#FFFFFF" stop-opacity="0.361642264" offset="43.5810811%"></stop>
            <stop stop-color="#FFFFFF" stop-opacity="0.899393575" offset="100%"></stop>
        </linearGradient>
        <filter x="-20.0%" y="-41.2%" width="140.0%" height="182.4%" filterUnits="objectBoundingBox" id="filter-4">
            <feGaussianBlur stdDeviation="7" in="SourceGraphic"></feGaussianBlur>
        </filter>
    </defs>
    <g id="Home" stroke="none" stroke-width="1" fill="none" fill-rule="evenodd">
        <g id="дома-V1" transform="translate(-1166.000000, -886.000000)">
            <g id="dostupnii" transform="translate(1166.000000, 886.000000)">
                <mask id="mask-2" fill="white">
                    <use xlink:href="#path-1"></use>
                </mask>
                <use id="Rectangle-Copy-9" fill="#F1F1F1" transform="translate(53.000000, 53.000000) rotate(-45.000000) translate(-53.000000, -53.000000) " xlink:href="#path-1"></use>
                <g id="money-(1)" mask="url(#mask-2)" fill-rule="nonzero">
                    <g transform="translate(25.000000, 28.000000)">
                        <path d="M24.3608195,54 L24.3608195,50.2001591 C24.2716766,50.1219442 24.1733908,50.0600728 24.0888193,49.9736862 L10.8019531,36.1751856 C10.1105241,35.5681449 11.9116681,36.7600459 12.5733829,36.4308431 L17.768815,37.6565982 L33.7688259,54 L24.3608195,54 Z M34.7516837,54 L47.217978,54 L47.217978,48.7350899 C49.2968365,47.1369386 50.6465517,44.6048787 50.6465517,41.7424487 C50.6465517,40.5657237 50.4122658,39.4485355 49.9985513,38.4259055 L34.7516837,54 Z" id="Shape" fill="#FFFFFF"></path>
                        <path d="M17.4539101,2.82848016 L3.47492582,16.8079887 C1.91288954,18.370129 1.91292685,20.9027714 3.47500915,22.4648656 L11.2824771,30.2721663 C12.003341,29.6161131 12.9498366,29.2041997 13.9958414,29.2041997 L25.5666914,29.2041997 C27.7940801,29.2041997 29.6164889,31.0265695 29.6164889,33.2539104 C29.6164889,35.4812513 27.7940801,37.3036212 25.5666914,37.3036212 L18.3129255,37.3036212 L32.1812047,51.1716032 C33.7433556,52.7335993 36.2759687,52.7335993 37.8381196,51.1716032 L51.8180943,37.191928 C53.3802688,35.6299082 53.3802959,33.0972483 51.8182155,31.5351344 C51.8181953,31.5351142 51.8181751,31.535094 51.8180943,31.5351344 L23.1107417,2.82839682 C21.5486505,1.26629366 19.0159906,1.2663208 17.4539101,2.8284347 C17.4539026,2.82844228 17.453895,2.82844985 17.4539101,2.82848016 Z" id="Path" fill="#0698D4"></path>
                        <rect id="Rectangle" fill="#0698D4" x="22.6465517" y="53" width="28" height="13"></rect>
                        <circle id="Oval" fill="#556080" cx="33.6465517" cy="60" r="3"></circle>
                        <path d="M31.144612,12 C32.6164115,11.3530289 33.6465517,9.88719785 33.6465517,8.17785736 C33.6465517,5.87048642 31.7760653,4 29.4686944,4 C27.7581602,4 26.2923291,5.03014026 25.6465517,6.50193972 L31.144612,12 Z" id="Path" fill="#FFFFFF"></path>
                        <path d="M37.144612,17 C38.6164115,16.3530289 39.6465517,14.8871979 39.6465517,13.1778574 C39.6465517,10.8704864 37.7760653,9 35.4686944,9 C33.7581602,9 32.2923291,10.0301403 31.6465517,11.5019397 L37.144612,17 Z" id="Path" fill="#FFFFFF"></path>
                        <path d="M43.144612,23 C44.6164115,22.3530289 45.6465517,20.8871979 45.6465517,19.1778574 C45.6465517,16.8704864 43.7760653,15 41.4686944,15 C39.7581602,15 38.2923291,16.0301403 37.6465517,17.5019397 L43.144612,23 Z" id="Path" fill="#FFFFFF"></path>
                        <path d="M49.144612,29 C50.6164115,28.3530289 51.6465517,26.8871979 51.6465517,25.1778574 C51.6465517,22.8704864 49.7760653,21 47.4686944,21 C45.7581602,21 44.2923291,22.0301403 43.6465517,23.5019397 L49.144612,29 Z" id="Path" fill="#FFFFFF"></path>
                        <path d="M25.5289047,37 L13.7641988,37 C11.4994929,37 9.64655172,35.2 9.64655172,33 L9.64655172,33 C9.64655172,30.8 11.4994929,29 13.7641988,29 L25.5289047,29 C27.7936105,29 29.6465517,30.8 29.6465517,33 L29.6465517,33 C29.6465517,35.2 27.7936105,37 25.5289047,37 Z" id="Path" fill="#FFFFFF"></path>
                        <path d="M27.1459762,13.4770898 C26.6958952,13.9271753 25.9683986,13.9271753 25.5183176,13.4770898 L22.9951015,10.9538483 C21.1268625,12.194749 18.5115582,12.194749 16.6456215,10.9538483 L11.5991892,16.0014824 C12.8665528,17.9180868 12.8665528,20.4332705 11.5991892,22.349875 L14.1224053,24.8731164 C14.5724863,25.3232019 14.5724863,26.0507058 14.1224053,26.5007913 C13.8979404,26.7252585 13.6032582,26.8380677 13.3085761,26.8380677 C13.0138939,26.8380677 12.7192117,26.7252585 12.4947468,26.5007913 L8.42560032,22.431604 L9.23942961,21.6177666 C10.5850681,20.2709634 10.5850681,18.0803939 9.23942961,16.7335907 L8.42560032,15.9197533 L16.5650443,7.7802276 L17.3788736,8.59406506 C18.6830725,9.89827699 20.9564994,9.89827699 22.2630004,8.59406506 L23.0768297,7.7802276 L27.1471273,11.850566 C27.5960572,12.2995004 27.5960572,13.0270043 27.1459762,13.4770898 Z M45.8675031,30.5699786 L41.7983567,26.5007913 C41.3482757,26.0507058 40.6207791,26.0507058 40.1706981,26.5007913 C39.7206171,26.9508768 39.7206171,27.6783807 40.1706981,28.1284662 L42.6939142,30.6517077 C41.4265507,32.5683122 41.4265507,35.0834958 42.6939142,37.0001003 L37.647482,42.0477343 C35.779243,40.8056825 33.1639387,40.8056825 31.298002,42.0477343 L28.7747859,39.5244928 C28.3247049,39.0744074 27.5972083,39.0744074 27.1471273,39.5244928 C26.6970463,39.9745783 26.6970463,40.7020823 27.1471273,41.1521678 L31.2174248,45.2225062 L32.0312541,44.4086687 C33.3366041,43.1033056 35.610031,43.1056079 36.9153809,44.4086687 L37.7292102,45.2225062 L45.8686542,37.0829805 L45.0548249,36.269143 C43.7091864,34.9223399 43.7091864,32.7317703 45.0548249,31.3849672 L45.8675031,30.5699786 Z M48.308991,33.011491 C47.85891,32.5614055 47.1302623,32.5614055 46.6813324,33.011491 C46.2312514,33.4615765 46.2312514,34.1902315 46.6813324,34.6391659 C47.1314134,35.0892514 47.8600611,35.0892514 48.308991,34.6391659 C48.759072,34.1902315 48.759072,33.4615765 48.308991,33.011491 Z M33.6577616,46.0351925 C33.2076806,46.485278 33.2076806,47.213933 33.6577616,47.6628674 C34.1078426,48.1118018 34.8364903,48.1129529 35.2854202,47.6628674 C35.7355011,47.2127819 35.7355011,46.4841269 35.2854202,46.0351925 C34.8364903,45.5862581 34.1078426,45.5862581 33.6577616,46.0351925 Z M20.6353419,6.96523903 C21.0854228,6.51515354 21.0854228,5.7864985 20.6353419,5.33756412 C20.1852609,4.88747863 19.4566132,4.88747863 19.0076833,5.33756412 C18.5576023,5.78764962 18.5576023,6.51630465 19.0076833,6.96523903 C19.4566132,7.41417342 20.1852609,7.41417342 20.6353419,6.96523903 Z M5.98411246,18.3601145 C5.53403148,18.8102 5.53403148,19.5388551 5.98411246,19.9877894 C6.43419344,20.4378749 7.16284116,20.4378749 7.61177104,19.9877894 C8.06185201,19.5377039 8.06185201,18.8090489 7.61177104,18.3601145 C7.16169006,17.9111802 6.43304233,17.9111802 5.98411246,18.3601145 Z" id="Shape" fill="#3B3B3B"></path>
                        <path d="M34.5700422,19.07692 C30.467835,14.97436 23.8179413,14.97436 19.7157341,19.07692 C17.09569,21.6971894 16.1573757,25.3562294 16.8844526,28.7269813 L25.0445187,28.7269813 C27.2911045,28.7269813 29.1292201,30.565255 29.1292201,32.8120339 C29.1292201,34.9280911 27.4930054,36.6613206 25.4261466,36.8585703 C28.6530606,37.3907942 32.0807085,36.4220532 34.5688752,33.9325054 C38.6722494,29.8299455 38.6722494,23.1783127 34.5700422,19.07692 Z" id="Path" fill="#047BAD"></path>
                    </g>
                </g>
                <rect id="Rectangle" fill="url(#linearGradient-3)" filter="url(#filter-4)" mask="url(#mask-2)" x="-2.27373675e-13" y="79" width="105" height="51"></rect>
            </g>
        </g>
    </g>
</svg>